<svg width="138" height="23" fill="none" xmlns="http://www.w3.org/2000/svg"><path fill-rule="evenodd" clip-rule="evenodd" d="M132.694 3.39695V22.297h-2.7V3.39695h-4.8v-2.1h12.3v2.1h-4.8zM122.299 14.5119c-.47.59-1.06 1.01-1.77 1.26s-1.555.375-2.535.375c-.46 0-.98-.03-1.56-.09-.58-.06-1.06-.13-1.44-.21v6.45h-2.7V1.59695c.76-.22 1.525-.375 2.295-.465.77-.09 1.605-.135002 2.505-.135002 1.2 0 2.22.125002 3.06.375002.84.25 1.52.665 2.04 1.245.52.58.9 1.35 1.14 2.31.24.96.36 2.15.36 3.57 0 1.46-.115 2.67995-.345 3.65995-.23.98-.58 1.765-1.05 2.355zm-1.53-8.71496c-.15-.72-.385-1.29-.705-1.71-.32-.42-.725-.715-1.215-.885-.49-.17-1.075-.255-1.755-.255h-2.1V14.0469h2.1c.68 0 1.265-.085 1.755-.255.49-.17.895-.465 1.215-.885.32-.42.555-.99.705-1.71.15-.72.225-1.61996.225-2.69996 0-1.08-.075-1.98-.225-2.7zM105.544 16.897h-6l-1.35 5.4h-2.7l5.1-21.00005h3.9l5.1 21.00005h-2.7l-1.35-5.4zm-2.94-12.60006h-.12l-2.49 10.49996h5.1l-2.49-10.49996zm-12.96 2.40001h-.15L85.144 19.597h-2.7l-4.35-12.90005h-.15l-.9 15.60005h-2.7l1.2-21.00005h3.3l4.89 14.40005h.12l4.89-14.40005h3.3l1.2 21.00005h-2.7l-.9-15.60005zM69.484 20.3469c-.56.82-1.235 1.4-2.025 1.74-.79.34-1.695.51-2.715.51-1.02 0-1.925-.17-2.715-.51-.79-.34-1.465-.92-2.025-1.74-.56-.82-.985-1.925-1.275-3.315-.29-1.39-.435-3.135-.435-5.235 0-2.09995.145-3.84495.435-5.23495.29-1.39.715-2.495 1.275-3.315.56-.82 1.235-1.4 2.025-1.74.79-.34 1.695-.510002 2.715-.510002 1.02 0 1.925.170002 2.715.510002.79.34 1.465.92 2.025 1.74.56.82.985 1.925 1.275 3.315.29 1.39.435 3.135.435 5.23495 0 2.1-.145 3.845-.435 5.235-.29 1.39-.715 2.495-1.275 3.315zM68.179 7.35695c-.21-1.16-.485-2.08-.825-2.76-.34-.68-.74-1.15-1.2-1.41-.46-.26-.93-.39-1.41-.39-.48 0-.95.13-1.41.39-.46.26-.86.73-1.2 1.41-.34.68-.615 1.6-.825 2.76-.21 1.16-.315 2.64-.315 4.43995 0 1.8.105 3.28.315 4.44.21 1.16.485 2.08.825 2.76.34.68.74 1.15 1.2 1.41.46.26.93.39 1.41.39.48 0 .95-.13 1.41-.39.46-.26.86-.73 1.2-1.41.34-.68.615-1.6.825-2.76.21-1.16.315-2.64.315-4.44 0-1.79995-.105-3.27995-.315-4.43995zM51.994 12.697h-6.3v9.6h-2.7V1.29695h2.7V10.597h6.3V1.29695h2.7V22.297h-2.7v-9.6zm-14.249 9.6l-3.75-9-3.75 9h-2.7l4.5-10.8-4.05-10.20005h2.7l3.3 8.4 3.3-8.4h2.7L35.945 11.497l4.5 10.8h-2.7zM15.695 1.29695h10.2v2.1h-7.5V10.297h6.6v2.1h-6.6v7.8h7.5v2.1h-10.2V1.29695zM8.495 22.297h-2.7V3.39695H.994998v-2.1H13.295v2.1h-4.8V22.297z" fill="#fff"/></svg>